<?xml version="1.0" encoding="UTF-8" standalone="no"?><!DOCTYPE svg PUBLIC "-//W3C//DTD SVG 1.1//EN" "http://www.w3.org/Graphics/SVG/1.1/DTD/svg11.dtd"><svg width="100%" height="100%" viewBox="0 0 2024 206" version="1.1" xmlns="http://www.w3.org/2000/svg" xmlns:xlink="http://www.w3.org/1999/xlink" xml:space="preserve" xmlns:serif="http://www.serif.com/" style="fill-rule:evenodd;clip-rule:evenodd;stroke-linejoin:round;stroke-miterlimit:2;"><g id="Title"><path d="M1979.2,2.933l-55.467,101.467l-49.6,-90.267l18.667,0l30.8,56.4l6.4,-11.6l-30.533,-56l-44.267,0l68.533,124.8l62.134,-113.6l18.666,0l-56.8,103.867l0,73.467l-16.8,-0l0,-48.534l-11.2,0l0,59.734l39.2,-0l0,-81.734l64.534,-118l-44.267,0Z" style="fill-rule:nonzero;"/><path d="M1769.87,2.8l-0,11.6c37.2,11.067 54.133,49.867 54.133,88.267c0,45.6 -23.733,91.6 -76.533,91.6c-52.8,-0 -76.534,-46 -76.534,-91.6c0,-43.867 22,-88 70.934,-91.334l-0,26.667c1.733,-0.267 3.6,-0.4 5.6,-0.4c35.466,0 48.533,37.067 48.533,65.067c0,28 -12.933,65.2 -48.533,65.2c-35.6,-0 -48.534,-37.2 -48.534,-65.2c0,-20.934 7.334,-47.2 26.134,-58.934l-0,-12.666c-25.467,11.466 -37.334,42.4 -37.334,71.6c0,36.8 18.667,76.4 59.734,76.4c41.066,-0 59.733,-39.6 59.733,-76.4c0,-34.934 -17.067,-72.534 -54.133,-76l-0,-26.4c-1.867,-0.134 -3.734,-0.267 -5.6,-0.267c-56,-0 -87.734,46.667 -87.734,102.667c0,56 31.734,102.8 87.734,102.8c56,-0 87.733,-46.8 87.733,-102.8c0,-48 -23.333,-89.067 -65.333,-99.867Z" style="fill-rule:nonzero;"/><path d="M1598.53,2.933l-39.733,112l5.867,16.934l41.733,-117.734l17.6,0l-59.333,165.467l-62.667,-176.667l-41.333,0l71.733,199.734l11.867,-0l-67.734,-188.534l17.6,0l66.8,188.534l7.334,-0l71.6,-199.734l-41.334,0Z" style="fill-rule:nonzero;"/><path d="M1388.27,133.6l-76.934,-130.667l-13.066,0l101.2,171.867l-0,-160.667l16.8,0l-0,177.334l-25.734,-0l-111.2,-188.534l-11.066,0l-0,199.734l39.2,-0l-0,-97.6l-11.2,-19.067l-0,105.467l-16.8,-0l-0,-166.267l104.666,177.467l43.334,-0l-0,-199.734l-39.2,0l-0,130.667Z" style="fill-rule:nonzero;"/><path d="M1137.2,165.067l0,-74.8l68.267,-0l-0,15.2l-51.467,-0l0,11.2l62.667,-0l-0,-37.6l-90.667,-0l0,97.2l84.4,-0l0,15.2l-101.2,-0l0,-177.334l99.333,0l0,15.2l-82.533,0l0,34.534l11.2,-0l0,-23.334l82.533,0l0,-37.6l-121.733,0l0,199.734l123.6,-0l0,-37.6l-84.4,-0Z" style="fill-rule:nonzero;"/><path d="M899.067,133.6l-76.934,-130.667l-13.066,0l101.2,171.867l-0,-160.667l16.8,0l-0,177.334l-25.734,-0l-111.2,-188.534l-11.066,0l-0,199.734l39.2,-0l-0,-97.6l-11.2,-19.067l-0,105.467l-16.8,-0l-0,-166.267l104.666,177.467l43.334,-0l-0,-199.734l-39.2,0l-0,130.667Z" style="fill-rule:nonzero;"/><path d="M673.067,2.933l-39.2,0l-44.934,123.6l100.267,0l-35.733,-98.266l-26.134,71.866l11.867,0l14.267,-39.066l19.733,54.266l-68.267,0l36.8,-101.2l23.467,0l64.533,177.334l-17.066,-0l-18,-49.734l-111.334,0l-22.133,60.934l40.8,-0l12.533,-34.534l-11.866,0l-8.534,23.334l-16.933,-0l14,-38.534l95.6,0l18,49.734l40.933,-0l-72.666,-199.734Z" style="fill-rule:nonzero;"/><path d="M513.467,93.333c8.533,-10.533 12.4,-24.4 12.4,-38.133c-0,-26.667 -23.2,-52.267 -61.867,-52.267l-71.6,0l0,87.2l70.4,0c22.4,0 35.6,-11.733 35.6,-32.533c0,-13.333 -9.6,-28.267 -36.533,-28.267l-41.467,0l0,34.4l11.2,0l0,-23.2l30.267,0c14.933,0 25.333,5.734 25.333,17.067c0,13.867 -7.733,21.333 -23.333,21.333l-60.267,0l0,-64.8l60.4,0c32,0 50.667,20.134 50.667,41.067c-0,22.667 -10.934,33.6 -19.6,40.4c18.133,7.733 30.266,22.4 30.266,47.333c0,25.867 -19.2,48.534 -54.666,48.534l-67.067,-0l0,-75.067l64.4,0c20.133,0 29.333,11.867 29.333,24.933c0,12.667 -7.466,23.734 -26.133,23.734l-39.6,-0l0,-33.467l-11.2,0l0,44.667l50.8,-0c25.6,-0 37.333,-16.8 37.333,-34.934c0,-20.533 -15.6,-36.133 -40.533,-36.133l-75.6,0l0,97.467l78.267,-0c40.666,-0 65.866,-26.667 65.866,-59.734c0,-22.4 -8.4,-38.8 -23.066,-49.6Z" style="fill-rule:nonzero;"/><path d="M274.133,2.933l-68.933,0l0,199.734l39.2,-0l0,-90l66,90l47.733,-0l-72.666,-98c20.4,-2.934 32.266,-17.2 32.266,-38.4c0,-22.4 -16.266,-36.934 -41.6,-36.934l-42.933,0l0,49.867l11.2,0l0,-38.667l31.733,0c18.534,0 30.4,8.934 30.4,25.734c0,14.933 -7.066,28.133 -31.733,28.133l-10.933,0l72,97.067l-19.734,-0l-71.333,-97.067l-11.6,0l0,97.067l-16.8,-0l0,-177.334l57.733,0c36.534,0 60.4,20 60.4,52.134c0,20 -7.733,35.6 -24.533,45.466l6.533,8.934c18.667,-10.534 29.2,-30.134 29.2,-54.4c0,-35.467 -25.6,-63.334 -71.6,-63.334Z" style="fill-rule:nonzero;"/><path d="M112.667,2.933l-0,122.267c-0,17.733 -4.667,29.867 -14.267,36.667l0,12.8c13.333,-6 25.467,-19.734 25.467,-49.467l-0,-111.067l16.8,0l-0,111.067c-0,24.4 -7.867,66 -59.067,68.933l0,-26.533c-1.867,0.133 -3.6,0.267 -5.6,0.267c-24.933,-0 -36.8,-14.4 -36.8,-42.667l0,-122.267l-39.2,0l0,122.267c0,38.8 17.2,68.8 53.6,77.867l0,-11.6c-35.067,-10.4 -42.4,-42.134 -42.4,-66.267l0,-111.067l16.8,0l0,111.067c0,42.267 24.8,52.533 42.4,53.6l0,26.533c1.867,0.134 3.733,0.134 5.6,0.134c51.867,-0 75.867,-34.4 75.867,-80.267l-0,-122.267l-39.2,0Z" style="fill-rule:nonzero;"/></g></svg>